<svg xmlns="http://www.w3.org/2000/svg" width="60" height="60" fill="none" viewBox="0 0 60 60">
    <g fill="#F3746B" clip-path="url(#clip0)">
        <path d="M51.184 8.815c-11.751-11.752-30.614-11.756-42.37 0-11.75 11.751-11.755 30.614 0 42.37 11.752 11.75 30.615 11.755 42.37 0 11.752-11.752 11.756-30.615 0-42.37zM30 56.479c-14.601 0-26.48-11.879-26.48-26.48C3.52 15.4 15.4 3.52 30 3.52 44.6 3.52 56.478 15.4 56.478 30c0 14.6-11.879 26.479-26.48 26.479z"/>
        <path d="M38.63 20.27c-.727-.645-1.837-.578-2.482.148-.644.726-.578 1.837.148 2.48 2.03 1.802 3.194 4.39 3.194 7.102 0 5.233-4.257 9.49-9.49 9.49-5.233 0-9.49-4.257-9.49-9.49 0-2.738 1.183-5.344 3.246-7.148.731-.639.806-1.749.167-2.48-.64-.73-1.75-.805-2.48-.166-2.827 2.472-4.448 6.041-4.448 9.794 0 7.171 5.834 13.005 13.005 13.005 7.171 0 13.005-5.834 13.005-13.005 0-3.716-1.595-7.262-4.376-9.73z"/>
        <path d="M30 27.07c.97 0 1.757-.787 1.757-1.758V15.94c0-.97-.786-1.757-1.757-1.757-.97 0-1.758.787-1.758 1.757v9.373c0 .97.787 1.758 1.758 1.758z"/>
    </g>
    <defs>
        <clipPath id="clip0">
            <path fill="#fff" d="M0 0H60V60H0z"/>
        </clipPath>
    </defs>
</svg>
