<svg xmlns="http://www.w3.org/2000/svg" width="62" height="62" fill="none" viewBox="0 0 62 62">
    <path fill="#F3746B" stroke="#F3746B" stroke-width="1.5" d="M31.282 2.5C20.376 2.5 11.5 11.376 11.5 22.282c0 .531.435.966.966.966.532 0 .966-.435.966-.966 0-9.843 8.007-17.85 17.85-17.85 9.842 0 17.849 8.007 17.849 17.85 0 1.256 0 5.084-8.043 19.37-.604 1.075-.966 2.61-1.377 4.396-1.195 5.145-2.693 11.546-10.772 11.546h-.012c-4.928 0-8.78-3.696-8.78-8.43 0-.531-.435-.966-.966-.966-.532 0-.966.435-.966.966-.012 2.79 1.135 5.471 3.164 7.391 2.005 1.92 4.698 2.971 7.548 2.971h.012c9.6 0 11.436-7.838 12.644-13.03.386-1.643.713-3.056 1.184-3.89 3.562-6.328 8.296-15.3 8.296-20.312 0-10.93-8.876-19.794-19.781-19.794z"/>
    <path fill="#F3746B" stroke="#F3746B" stroke-width="1.5" d="M39.59 19.407c-1.956-4.59-7.27-6.715-11.847-4.758-3.333 1.425-5.483 4.685-5.483 8.309 0 .53.435.966.966.966.532 0 .967-.435.967-.966 0-2.138.966-4.167 2.62-5.507 1.691-1.365 3.901-1.885 6.015-1.426 2.813.604 4.963 2.863 5.458 5.689.58 3.26-1.171 6.485-4.227 7.789-.084.036-8.2 4.408-7.958 10v2.958c0 .532.434.966.966.966.531 0 .966-.434.966-.966v-2.983-.048c-.217-3.84 5.604-7.572 6.8-8.176 4.588-1.956 6.714-7.27 4.757-11.847z"/>
    <path stroke="#fff" stroke-width="2" d="M1 1H61V61H1z"/>
</svg>
