<svg xmlns="http://www.w3.org/2000/svg" width="1440" height="683" fill="none" viewBox="0 0 1440 683">
    <path fill="#F3F4FA" d="M0 0H1440V683H0z"/>
    <mask id="ba1vzedfxa" width="1440" height="683" x="0" y="0" maskUnits="userSpaceOnUse">
        <path fill="#F3F4FA" d="M0 0H1440V683H0z"/>
    </mask>
    <g mask="url(#ba1vzedfxa)">
        <g opacity=".06">
            <circle cx="79.512" cy="74.512" r="121.066" stroke="#535FB3" stroke-width="17.295" transform="rotate(-28.09 79.512 74.512)"/>
            <path fill="#535FB3" d="M69.988 103.196l-14.047-24.85 7.018-3.746c5.188-2.769 9.674-5.751 13.457-8.947 3.784-3.196 6.241-6.794 7.373-10.796 1.131-4.002.34-8.546-2.375-13.632-2.606-4.883-6.117-7.91-10.533-9.082-4.47-1.274-9.146-.607-14.029 1.999-5.085 2.714-8.292 6.256-9.62 10.624-1.383 4.267-.798 8.79 1.754 13.57l-18.462 9.855c-3.36-6.049-4.942-12.197-4.747-18.443.195-6.247 2.153-12.128 5.875-17.643 3.823-5.57 9.397-10.31 16.72-14.218 6.816-3.638 13.496-5.57 20.04-5.795 6.647-.28 12.722 1.183 18.223 4.389 5.55 3.05 10.142 7.983 13.78 14.798 3.746 7.019 5.264 13.658 4.554 19.918-.609 6.207-3.011 11.867-7.208 16.983-4.095 5.06-9.624 9.515-16.589 13.363l6.058 12.45-17.242 9.203zm27.02 29.688c-3.56 1.9-7.106 2.356-10.64 1.367-3.433-1.044-5.99-3.142-7.673-6.295-1.738-3.255-2.085-6.599-1.041-10.031 1.145-3.487 3.498-6.18 7.058-8.08 3.56-1.901 7.056-2.329 10.488-1.286 3.432 1.044 6.017 3.193 7.755 6.448 1.683 3.153 2.002 6.446.959 9.878-1.043 3.433-3.345 6.099-6.905 7.999z"/>
        </g>
        <g opacity=".06">
            <circle cx="1216.89" cy="216.284" r="58.187" stroke="#535FB3" stroke-width="8.312" transform="rotate(45.168 1216.89 216.284)"/>
            <path fill="#535FB3" d="M1202.15 216.09l9.5-9.905 2.69 2.711c1.99 2.005 3.99 3.656 5.98 4.955 2 1.299 3.99 1.932 5.99 1.899 2-.034 3.98-1.027 5.95-2.981 1.88-1.875 2.79-3.91 2.72-6.105-.03-2.233-.99-4.293-2.86-6.18-1.96-1.965-4.03-2.95-6.22-2.957-2.16-.045-4.16.85-6.01 2.686l-7.09-7.133c2.32-2.383 4.93-3.962 7.83-4.738 2.9-.775 5.88-.688 8.94.262 3.09.988 6.04 2.897 8.86 5.727 2.61 2.633 4.43 5.44 5.44 8.421 1.05 3.02 1.21 6.019.5 8.995-.64 2.976-2.27 5.773-4.9 8.391-2.72 2.695-5.56 4.313-8.54 4.853-2.94.579-5.88.257-8.81-.966-2.9-1.184-5.72-3.112-8.45-5.785l-4.89 4.512-6.63-6.662zm-9.92 16.547c-1.37-1.376-2.07-2.945-2.1-4.709 0-1.724.62-3.191 1.83-4.403 1.26-1.25 2.75-1.873 4.48-1.867 1.76.044 3.32.754 4.69 2.129 1.37 1.376 2.05 2.926 2.05 4.65-.01 1.724-.64 3.211-1.9 4.461-1.22 1.211-2.69 1.815-4.41 1.81-1.73-.006-3.27-.696-4.64-2.071z"/>
        </g>
        <g opacity=".06">
            <circle cx="331.775" cy="629.775" r="39.667" stroke="#535FB3" stroke-width="5.667" transform="rotate(16.41 331.775 629.775)"/>
            <path fill="#535FB3" d="M322.823 634.763l2.424-9.033 2.501.736c1.848.544 3.581.878 5.199 1 1.618.122 3.019-.155 4.203-.83 1.183-.676 2.042-1.919 2.575-3.731.513-1.74.387-3.254-.376-4.542-.752-1.324-1.997-2.242-3.737-2.754-1.812-.534-3.375-.443-4.688.273-1.303.68-2.205 1.871-2.707 3.574l-6.577-1.937c.604-2.185 1.646-3.985 3.126-5.4 1.48-1.415 3.288-2.339 5.425-2.774 2.172-.423 4.563-.251 7.172.518 2.428.715 4.433 1.797 6.014 3.248 1.618 1.461 2.702 3.198 3.251 5.21.596 1.987.537 4.195-.178 6.623-.737 2.5-1.907 4.401-3.51 5.701-1.568 1.31-3.429 2.081-5.585 2.313-2.119.242-4.434.013-6.945-.687l-1.444 4.301-6.143-1.809zm-.503 13.143c-1.268-.374-2.202-1.082-2.801-2.124-.562-1.032-.678-2.11-.347-3.234.341-1.159 1.028-2.02 2.06-2.583 1.069-.552 2.237-.641 3.505-.267 1.269.373 2.184 1.076 2.747 2.108.562 1.032.672 2.128.331 3.288-.331 1.123-1.012 1.966-2.044 2.529-1.032.562-2.183.657-3.451.283z"/>
        </g>
    </g>
</svg>
